<svg xmlns="http://www.w3.org/2000/svg" xmlns:xlink="http://www.w3.org/1999/xlink" viewBox="0 0 1406.09 1406.09"><defs><style>.cls-4{fill:#fff}</style><linearGradient id="linear-gradient" y1="703.05" x2="1406.09" y2="703.05" gradientUnits="userSpaceOnUse"><stop offset="0" stop-color="#f4c673"/><stop offset=".05" stop-color="#f4c46f"/><stop offset=".09" stop-color="#f3bf64"/><stop offset=".13" stop-color="#f2b752"/><stop offset=".17" stop-color="#f0aa38"/><stop offset=".18" stop-color="#efa730"/><stop offset=".25" stop-color="#c68d2d"/><stop offset=".32" stop-color="#ac7d2c"/><stop offset=".35" stop-color="#a2772b"/><stop offset=".43" stop-color="#c09b57"/><stop offset=".51" stop-color="#debe81"/><stop offset=".57" stop-color="#f0d39b"/><stop offset=".61" stop-color="#f7dba5"/><stop offset=".61" stop-color="#f6d392"/><stop offset=".63" stop-color="#f4c878"/><stop offset=".64" stop-color="#f2c064"/><stop offset=".66" stop-color="#f1ba56"/><stop offset=".68" stop-color="#f0b64e"/><stop offset=".72" stop-color="#f0b54b"/><stop offset=".79" stop-color="#d6a040"/><stop offset=".87" stop-color="#bc8b36"/><stop offset=".92" stop-color="#b28332"/><stop offset="1" stop-color="#f7dba5"/><stop offset="1" stop-color="#f8dfb0"/><stop offset="1" stop-color="#f9e4bf"/></linearGradient><linearGradient id="linear-gradient-2" x1="269.6" y1="703.51" x2="621.92" y2="703.51" xlink:href="#linear-gradient"/><linearGradient id="linear-gradient-3" x1="660.37" y1="703.05" x2="1113.46" y2="703.05" xlink:href="#linear-gradient"/></defs><g id="Layer_2" data-name="Layer 2"><g id="Layer_1-2" data-name="Layer 1"><path d="M703.05 1406.09A703.23 703.23 0 0 1 429.38 55.26a703.22 703.22 0 0 1 547.33 1295.57 698.59 698.59 0 0 1-273.66 55.26z" fill="url(#linear-gradient)"/><circle cx="703.05" cy="703.05" r="678.05"/><path d="M406.76 1083.08V563.36H269.6V417.25h25c53.76 0 105.34-10.91 128.34-27.15 19.2-13.6 29.61-28.08 32.73-45.55l3.68-20.61h162.57v759.14z" fill="url(#linear-gradient-2)"/><path d="M889.71 1094.28c-66.73 0-123.13-17.85-163.09-51.63-43.34-36.62-66.25-91-66.25-157.19v-376c0-58.92 22.12-108.9 64-144.53 40.79-34.73 97.65-53.09 164.45-53.09 63.1 0 117.86 17.57 158.39 50.81a177.51 177.51 0 0 1 48.71 62.35c11.64 24.92 17.54 52.68 17.54 82.53v383.53c0 63.75-23 116.57-66.38 152.76-39.62 33.01-94.03 50.46-157.37 50.46z" fill="url(#linear-gradient-3)"/><path class="cls-4" d="M437.36 410.53c-31.72 22.39-93.31 31.72-142.76 31.72v96.11h137.16v519.72h165.16V348.94H480.28c-4.66 26.13-20.53 45.72-42.92 61.59zM888.78 336.81c-124.1 0-203.41 68.12-203.41 172.62v376c0 123.17 84.91 183.82 204.35 183.82 112 0 198.74-59.72 198.74-178.22V507.57c0-107.31-85.84-170.76-199.68-170.76z"/><g><path d="M1020.9 608.26c-26.92 2.29-51.73-7.11-59.89-18v-35.72C972.62 561 991 545.81 991 538.4c-45.84 17.25-99.8-55.53-99.8-55.53s-54 72.78-99.81 55.53c0 7.41 18.34 22.55 29.95 16.14v35.77c-8.16 10.84-33 20.24-59.89 18 0 13.27 23.44 31.39 39.92 26.4v57.8h-10v10H991v-10h-10v-57.8c16.46 4.94 39.9-13.18 39.9-26.45zm-159.69-55.53h59.88v39.93h-59.88zm-29.94 0h20v39.93h-20zm99.8 139.73h-79.84v-59.88h79.84zm20-99.8h-20v-39.93h20zM883.91 768.2H853v144.18h-30.7V768.2h-30.95v-24.91h92.56zM990.92 912.38H960v-72.09h-33.15v72.09h-30.93V743.29h30.93V814H960v-70.71h30.92z"/></g></g></g></svg>