<svg xmlns="http://www.w3.org/2000/svg" viewBox="0 0 4953.25 912.79">
  <defs>
    <style>
      .cls-2{fill:#fff}
    </style>
  </defs>
  <g id="Layer_2" data-name="Layer 2">
    <g id="Layer_1-2" data-name="Layer 1">
      <path d="M206.71 897.69H0V15.1h217.16c125.42 0 205.55 67.36 205.55 219.49 0 104.51-33.67 167.22-115 203.22v2.33c89.43 25.55 127.75 99.87 127.75 223 .03 147.45-84.75 234.55-228.75 234.55zM195.1 127.75h-61.55v263.61h61.55c55.74 0 101-32.51 101-127.74.03-110.32-45.26-135.87-101-135.87zm3.48 373.94h-65V785h65c61.55 0 103.36-36 103.36-146.32 0-106.8-51.1-136.99-103.36-136.99zM938.55 897.69H803.84l-22.07-131.23H615.71L596 897.69H475.19L630.81 15.1h151zM764.36 653.82l-66.2-458.72h-5.81L632 653.82zM1452.76 691c0 141.68-76.65 206.71-214.84 206.71h-228.78V15.1h224.13c149.81 0 219.49 72 219.49 226.45zm-134.71-452.93c0-77.81-31.36-110.32-92.91-110.32h-82.45V785h82.45c59.23 0 92.91-36 92.91-110.32zM1970.93 897.69h-134.71l-22.07-131.23h-166.06l-19.75 131.23h-120.77L1663.18 15.1h151zm-174.2-243.87l-66.19-458.72h-5.81l-60.39 458.72zM2237.66 912.79c-118.45 0-212.52-59.23-212.52-233.43V239.23C2025.14 65 2121.53 0 2238.82 0c116.18 0 198.59 53.42 198.59 204.39 0 38.33-2.33 77.81-7 109.17L2319 305.43c4.65-23.23 7-53.42 7-79 0-88.26-25.55-113.81-79-113.81-63.87 0-88.26 49.94-88.26 95.23v495.9c0 58.07 26.71 96.39 88.26 96.39 52.26 0 80.13-27.87 80.13-112.65 0-33.67-2.32-59.22-7-80.13l109.16-9.29c4.64 26.71 8.13 55.75 8.13 110.33-.01 152.13-84.79 204.39-199.76 204.39zM2970.54 897.69H2837v-389h-188.14v389h-133.55V15.1h133.55V396H2837V15.1h133.55zM3510.07 692.14c0 137-91.74 219.48-219.49 219.48-132.39 0-226.45-82.45-226.45-218.32V15.1h133.55v685.17c0 58.06 38.32 96.39 96.39 96.39 61.55 0 88.26-46.46 88.26-97.55V15.1h127.74z"/>
      <g>
        <path d="M4371.48 897.69h-205.55V250.84h-170.71V131.23c61.55 0 138.2-11.61 177.68-39.48 27.87-19.74 47.61-44.13 53.42-76.65h145.16zM4705.89 911.63c-148.64 0-254.32-75.49-254.32-228.78v-468C4451.57 84.78 4550.28 0 4704.73 0c141.68 0 248.52 79 248.52 212.52v477.3c0 147.48-108 221.81-247.36 221.81z"/>
      </g>
      <path fill="#579ed6" d="M3885.84 6.74L3647 898.12h-31.06L3854.79 6.74h31.05z"/>
      <g>
        <path d="M4869.16 337.84c-33.5 2.85-64.37-8.84-74.53-22.34V271c14.45 8 37.26-10.87 37.26-20.09-57.06 21.47-124.21-69.12-124.21-69.12s-67.16 90.59-124.22 69.12c0 9.22 22.82 28.06 37.27 20.09v44.5c-10.16 13.5-41 25.19-74.53 22.34 0 16.52 29.16 39.07 49.68 32.86v71.94h-12.42v12.42h248.43v-12.42h-12.42V370.7c20.53 6.21 49.69-16.34 49.69-32.86zm-198.75-69.11H4745v49.69h-74.54zm-37.26 0H4658v49.69h-24.84zm124.22 173.91H4658v-74.53h99.38zm24.84-124.22h-24.84v-49.69h24.84zM4698.67 536.9h-38.49v179.44H4622V536.9h-38.5v-31h115.2zM4831.86 716.34h-38.49v-89.72h-41.26v89.72h-38.49V505.89h38.49v88.05h41.26v-88.05h38.49z" class="cls-2"/>
      </g>
    </g>
  </g>
</svg>
