<svg xmlns="http://www.w3.org/2000/svg" viewBox="0 0 912.79 4953.25">
  <defs>
    <style>
      .cls-2{fill:#fff}
    </style>
  </defs>
  <g id="Layer_2" data-name="Layer 2">
    <g id="Layer_1-2" data-name="Layer 1">
      <path d="M897.69 4746.54v206.71H15.1v-217.16c0-125.42 67.36-205.55 219.49-205.55 104.51 0 167.22 33.67 203.22 115h2.33c25.55-89.42 99.87-127.75 223-127.75 147.45-.03 234.55 84.75 234.55 228.75zm-769.94 11.61v61.55h263.61v-61.55c0-55.74-32.51-101-127.74-101-110.32-.03-135.87 45.26-135.87 101zm373.94-3.48v65H785v-65c0-61.55-36-103.36-146.32-103.36-106.8 0-136.99 51.1-136.99 103.36zM897.69 4014.7v134.71l-131.23 22.07v166.06l131.23 19.74v120.78L15.1 4322.44v-151zm-243.87 174.19l-458.72 66.2v5.81l458.72 60.38zM691 3500.49c141.68 0 206.71 76.65 206.71 214.84v228.78H15.1V3720c0-149.81 72-219.49 226.45-219.49zM238.07 3635.2c-77.81 0-110.32 31.36-110.32 92.91v82.45H785v-82.45c0-59.23-36-92.91-110.32-92.91zM897.69 2982.32V3117l-131.23 22.1v166.07l131.23 19.74v120.77L15.1 3290.07v-151zm-243.87 174.2l-458.72 66.19v5.81l458.72 60.39zM912.79 2715.59c0 118.45-59.23 212.52-233.43 212.52H239.23C65 2928.11 0 2831.72 0 2714.43c0-116.13 53.42-198.59 204.39-198.59 38.33 0 77.81 2.33 109.17 7l-8.13 111.49c-23.23-4.65-53.42-7-79-7-88.26 0-113.81 25.55-113.81 79 0 63.87 49.94 88.26 95.23 88.26h495.9c58.07 0 96.39-26.71 96.39-88.26 0-52.26-27.87-80.13-112.65-80.13-33.67 0-59.22 2.32-80.13 7l-9.29-109.2c26.71-4.64 55.75-8.13 110.33-8.13 152.13-.03 204.39 84.75 204.39 199.72zM897.69 1982.71v133.55h-389v188.13h389v133.55H15.1v-133.55H396v-188.13H15.1v-133.55zM692.14 1443.18c137 0 219.48 91.74 219.48 219.49 0 132.39-82.45 226.45-218.32 226.45H15.1v-133.55h685.17c58.06 0 96.39-38.32 96.39-96.39 0-61.55-46.46-88.26-97.55-88.26H15.1v-127.74z"/>
      <g>
        <path d="M897.69 581.77v205.55H250.84V958H131.23c0-61.55-11.61-138.2-39.48-177.68C72 752.48 47.62 732.74 15.1 726.93V581.77zM911.63 247.36c0 148.64-75.49 254.32-228.78 254.32h-468C84.78 501.68 0 403 0 248.52 0 106.84 79 0 212.52 0h477.3C837.3 0 911.63 108 911.63 247.36z"/>
      </g>
      <path fill="#579ed6" d="M6.74 1067.41l891.38 238.84v31.06L6.74 1098.46v-31.05z"/>
      <g>
        <path d="M337.84 84.09c2.85 33.5-8.84 64.37-22.34 74.53H271c8-14.45-10.87-37.26-20.09-37.26 21.47 57.06-69.12 124.21-69.12 124.21s90.59 67.16 69.12 124.22c9.22 0 28.06-22.82 20.09-37.27h44.5c13.5 10.16 25.19 41 22.34 74.53 16.52 0 39.07-29.16 32.86-49.68h71.94v12.42h12.42V121.36h-12.42v12.42H370.7c6.21-20.53-16.34-49.69-32.86-49.69zm-69.11 198.75V208.3h49.69v74.54zm0 37.26v-24.84h49.69v24.84zm173.91-124.22v99.38h-74.53v-99.38zM318.42 171v24.84h-49.69V171zM536.9 254.58v38.49h179.44v38.21H536.9v38.5h-31v-115.2zM716.34 121.39v38.49h-89.72v41.26h89.72v38.49H505.89v-38.49h88.05v-41.26h-88.05v-38.49z" class="cls-2"/>
      </g>
    </g>
  </g>
</svg>
